<?xml version="1.0" encoding="UTF-8" standalone="no"?>
<!DOCTYPE svg PUBLIC "-//W3C//DTD SVG 1.1//EN"
 "http://www.w3.org/Graphics/SVG/1.1/DTD/svg11.dtd">
<!-- Generated by graphviz version 2.28.0 (20110507.0327)
 -->
<!-- Title: G Pages: 1 -->
<svg width="730pt" height="2108pt"
 viewBox="0.00 0.00 730.00 2108.27" xmlns="http://www.w3.org/2000/svg" xmlns:xlink="http://www.w3.org/1999/xlink">
<g id="graph1" class="graph" transform="scale(1 1) rotate(0) translate(4 2104.27)">
<title>G</title>
<polygon fill="white" stroke="white" points="-4,5 -4,-2104.27 727,-2104.27 727,5 -4,5"/>
<g id="graph2" class="cluster"><title>cluster_global</title>
<polyline fill="none" stroke="gray" points="263,-184.27 702,-184.27 "/>
<path fill="none" stroke="gray" d="M702,-184.27C708,-184.27 714,-190.27 714,-196.27"/>
<polyline fill="none" stroke="gray" points="714,-196.27 714,-2080.27 "/>
<path fill="none" stroke="gray" d="M714,-2080.27C714,-2086.27 708,-2092.27 702,-2092.27"/>
<polyline fill="none" stroke="gray" points="702,-2092.27 263,-2092.27 "/>
<path fill="none" stroke="gray" d="M263,-2092.27C257,-2092.27 251,-2086.27 251,-2080.27"/>
<polyline fill="none" stroke="gray" points="251,-2080.27 251,-196.27 "/>
<path fill="none" stroke="gray" d="M251,-196.27C251,-190.27 257,-184.27 263,-184.27"/>
<text text-anchor="middle" x="482.5" y="-2079.47" font-family="Times New Roman,serif" font-size="11.00" fill="gray">global</text>
</g>
<!-- \\MNA_Pad_Counts_Walker -->
<g id="node2" class="node"><title>\\MNA_Pad_Counts_Walker</title>
<a xlink:href="examples.twentytwelve-mla.content-tosca30-dropdown.html" xlink:title="MNA_Pad_Counts_Walker" target="_parent">
<polygon fill="none" stroke="black" points="675,-2010.27 517,-2010.27 517,-1974.27 675,-1974.27 675,-2010.27"/>
<text text-anchor="middle" x="596" y="-1989.47" font-family="Courier,monospace" font-size="11.00">MNA_Pad_Counts_Walker</text>
</a>
</g>
<!-- \\Walker_Category -->
<g id="node39" class="node"><title>\\Walker_Category</title>
<ellipse fill="none" stroke="black" cx="315" cy="-158.27" rx="77.1866" ry="18"/>
<text text-anchor="middle" x="315" y="-154.57" font-family="Times New Roman,serif" font-size="14.00" fill="gray">\Walker_Category</text>
</g>
<!-- \\MNA_Pad_Counts_Walker&#45;&gt;\\Walker_Category -->
<g id="edge3" class="edge"><title>\\MNA_Pad_Counts_Walker&#45;&gt;\\Walker_Category</title>
<path fill="none" stroke="black" d="M516.887,-1986.01C504.978,-1981.66 494.009,-1975.09 486,-1965.27 360.549,-1811.44 541.135,-332.707 414,-180.27 409.749,-175.173 404.596,-171.105 398.902,-167.874"/>
<polygon fill="none" stroke="black" points="400.099,-164.568 389.563,-163.455 397.106,-170.896 400.099,-164.568"/>
</g>
<!-- \\CPAC_Storage_Model_MLA -->
<g id="node3" class="node"><title>\\CPAC_Storage_Model_MLA</title>
<a xlink:href="includes.class-mla-admin-columns-support.html" xlink:title="CPAC_Storage_Model_MLA" target="_parent">
<polygon fill="none" stroke="black" points="678.5,-1038.27 513.5,-1038.27 513.5,-1002.27 678.5,-1002.27 678.5,-1038.27"/>
<text text-anchor="middle" x="596" y="-1017.47" font-family="Courier,monospace" font-size="11.00">CPAC_Storage_Model_MLA</text>
</a>
</g>
<!-- \\CPAC_Storage_Model -->
<g id="node41" class="node"><title>\\CPAC_Storage_Model</title>
<ellipse fill="none" stroke="black" cx="315" cy="-104.27" rx="98.5829" ry="18"/>
<text text-anchor="middle" x="315" y="-100.57" font-family="Times New Roman,serif" font-size="14.00" fill="gray">\CPAC_Storage_Model</text>
</g>
<!-- \\CPAC_Storage_Model_MLA&#45;&gt;\\CPAC_Storage_Model -->
<g id="edge5" class="edge"><title>\\CPAC_Storage_Model_MLA&#45;&gt;\\CPAC_Storage_Model</title>
<path fill="none" stroke="black" d="M513.41,-1012.25C502.939,-1007.97 493.333,-1001.88 486,-993.27 361.337,-846.953 536.748,-279.197 414,-131.27 410.566,-127.132 406.562,-123.597 402.171,-120.579"/>
<polygon fill="none" stroke="black" points="403.699,-117.418 393.299,-115.392 400.165,-123.461 403.699,-117.418"/>
</g>
<!-- \\MLA_Ajax -->
<g id="node4" class="node"><title>\\MLA_Ajax</title>
<a xlink:href="includes.class-mla-ajax.html" xlink:title="MLA_Ajax" target="_parent">
<polygon fill="none" stroke="black" points="631.5,-1956.27 560.5,-1956.27 560.5,-1920.27 631.5,-1920.27 631.5,-1956.27"/>
<text text-anchor="middle" x="596" y="-1935.47" font-family="Courier,monospace" font-size="11.00">MLA_Ajax</text>
</a>
</g>
<!-- \\MLACoreOptions -->
<g id="node5" class="node"><title>\\MLACoreOptions</title>
<a xlink:href="includes.class-mla-core-options.html" xlink:title="MLACoreOptions" target="_parent">
<polygon fill="none" stroke="black" points="651.5,-1902.27 540.5,-1902.27 540.5,-1866.27 651.5,-1866.27 651.5,-1902.27"/>
<text text-anchor="middle" x="596" y="-1881.47" font-family="Courier,monospace" font-size="11.00">MLACoreOptions</text>
</a>
</g>
<!-- \\MLACore -->
<g id="node6" class="node"><title>\\MLACore</title>
<a xlink:href="includes.class-mla-core.html" xlink:title="MLACore" target="_parent">
<polygon fill="none" stroke="black" points="628,-1848.27 564,-1848.27 564,-1812.27 628,-1812.27 628,-1848.27"/>
<text text-anchor="middle" x="596" y="-1827.47" font-family="Courier,monospace" font-size="11.00">MLACore</text>
</a>
</g>
<!-- \\MLA_Checklist_Walker -->
<g id="node7" class="node"><title>\\MLA_Checklist_Walker</title>
<a xlink:href="includes.class-mla-core.html" xlink:title="MLA_Checklist_Walker" target="_parent">
<polygon fill="none" stroke="black" points="672,-1794.27 520,-1794.27 520,-1758.27 672,-1758.27 672,-1794.27"/>
<text text-anchor="middle" x="596" y="-1773.47" font-family="Courier,monospace" font-size="11.00">MLA_Checklist_Walker</text>
</a>
</g>
<!-- \\MLA_Checklist_Walker&#45;&gt;\\Walker_Category -->
<g id="edge7" class="edge"><title>\\MLA_Checklist_Walker&#45;&gt;\\Walker_Category</title>
<path fill="none" stroke="black" d="M519.976,-1771.03C506.898,-1766.72 494.716,-1759.9 486,-1749.27 375.329,-1614.33 526.148,-313.982 414,-180.27 409.735,-175.185 404.572,-171.125 398.872,-167.899"/>
<polygon fill="none" stroke="black" points="400.062,-164.591 389.525,-163.488 397.074,-170.921 400.062,-164.591"/>
</g>
<!-- \\MLAPDF -->
<g id="node8" class="node"><title>\\MLAPDF</title>
<a xlink:href="includes.class-mla-data-pdf.html" xlink:title="MLAPDF" target="_parent">
<polygon fill="none" stroke="black" points="624.5,-1740.27 567.5,-1740.27 567.5,-1704.27 624.5,-1704.27 624.5,-1740.27"/>
<text text-anchor="middle" x="596" y="-1719.47" font-family="Courier,monospace" font-size="11.00">MLAPDF</text>
</a>
</g>
<!-- \\MLAQuery -->
<g id="node9" class="node"><title>\\MLAQuery</title>
<a xlink:href="includes.class-mla-data-query.html" xlink:title="MLAQuery" target="_parent">
<polygon fill="none" stroke="black" points="631.5,-1686.27 560.5,-1686.27 560.5,-1650.27 631.5,-1650.27 631.5,-1686.27"/>
<text text-anchor="middle" x="596" y="-1665.47" font-family="Courier,monospace" font-size="11.00">MLAQuery</text>
</a>
</g>
<!-- \\MLAReferences -->
<g id="node10" class="node"><title>\\MLAReferences</title>
<a xlink:href="includes.class-mla-data-references.html" xlink:title="MLAReferences" target="_parent">
<polygon fill="none" stroke="black" points="648,-1632.27 544,-1632.27 544,-1596.27 648,-1596.27 648,-1632.27"/>
<text text-anchor="middle" x="596" y="-1611.47" font-family="Courier,monospace" font-size="11.00">MLAReferences</text>
</a>
</g>
<!-- \\MLAData_Source -->
<g id="node11" class="node"><title>\\MLAData_Source</title>
<a xlink:href="includes.class-mla-data-source.html" xlink:title="MLAData_Source" target="_parent">
<polygon fill="none" stroke="black" points="651.5,-1578.27 540.5,-1578.27 540.5,-1542.27 651.5,-1542.27 651.5,-1578.27"/>
<text text-anchor="middle" x="596" y="-1557.47" font-family="Courier,monospace" font-size="11.00">MLAData_Source</text>
</a>
</g>
<!-- \\MLAData -->
<g id="node12" class="node"><title>\\MLAData</title>
<a xlink:href="includes.class-mla-data.html" xlink:title="MLAData" target="_parent">
<polygon fill="none" stroke="black" points="628,-1524.27 564,-1524.27 564,-1488.27 628,-1488.27 628,-1524.27"/>
<text text-anchor="middle" x="596" y="-1503.47" font-family="Courier,monospace" font-size="11.00">MLAData</text>
</a>
</g>
<!-- \\MLAEdit -->
<g id="node13" class="node"><title>\\MLAEdit</title>
<a xlink:href="includes.class-mla-edit-media.html" xlink:title="MLAEdit" target="_parent">
<polygon fill="none" stroke="black" points="628,-1470.27 564,-1470.27 564,-1434.27 628,-1434.27 628,-1470.27"/>
<text text-anchor="middle" x="596" y="-1449.47" font-family="Courier,monospace" font-size="11.00">MLAEdit</text>
</a>
</g>
<!-- \\MLAImageProcessor -->
<g id="node14" class="node"><title>\\MLAImageProcessor</title>
<a xlink:href="includes.class-mla-image-processor.html" xlink:title="MLAImageProcessor" target="_parent">
<polygon fill="none" stroke="black" points="661.5,-1416.27 530.5,-1416.27 530.5,-1380.27 661.5,-1380.27 661.5,-1416.27"/>
<text text-anchor="middle" x="596" y="-1395.47" font-family="Courier,monospace" font-size="11.00">MLAImageProcessor</text>
</a>
</g>
<!-- \\MLAMutex -->
<g id="node15" class="node"><title>\\MLAMutex</title>
<a xlink:href="includes.class-mla-image-processor.html" xlink:title="MLAMutex" target="_parent">
<polygon fill="none" stroke="black" points="631.5,-1362.27 560.5,-1362.27 560.5,-1326.27 631.5,-1326.27 631.5,-1362.27"/>
<text text-anchor="middle" x="596" y="-1341.47" font-family="Courier,monospace" font-size="11.00">MLAMutex</text>
</a>
</g>
<!-- \\MLA_List_Table -->
<g id="node16" class="node"><title>\\MLA_List_Table</title>
<a xlink:href="includes.class-mla-list-table.html" xlink:title="MLA_List_Table" target="_parent">
<polygon fill="none" stroke="black" points="370.5,-1147.27 259.5,-1147.27 259.5,-1111.27 370.5,-1111.27 370.5,-1147.27"/>
<text text-anchor="middle" x="315" y="-1126.47" font-family="Courier,monospace" font-size="11.00">MLA_List_Table</text>
</a>
</g>
<!-- \\WP_List_Table -->
<g id="node44" class="node"><title>\\WP_List_Table</title>
<ellipse fill="none" stroke="black" cx="72" cy="-566.27" rx="71.4873" ry="18"/>
<text text-anchor="middle" x="72" y="-562.57" font-family="Times New Roman,serif" font-size="14.00" fill="gray">\WP_List_Table</text>
</g>
<!-- \\MLA_List_Table&#45;&gt;\\WP_List_Table -->
<g id="edge9" class="edge"><title>\\MLA_List_Table&#45;&gt;\\WP_List_Table</title>
<path fill="none" stroke="black" d="M259.354,-1127.5C243.634,-1124.43 227.618,-1118.46 216,-1107.27 139.963,-1034.04 89.9668,-695.24 76.5978,-594.559"/>
<polygon fill="none" stroke="black" points="80.0528,-593.987 75.2829,-584.527 73.1122,-594.897 80.0528,-593.987"/>
</g>
<!-- \\MLA -->
<g id="node17" class="node"><title>\\MLA</title>
<a xlink:href="includes.class-mla-main.html" xlink:title="MLA" target="_parent">
<polygon fill="none" stroke="black" points="623,-1308.27 569,-1308.27 569,-1272.27 623,-1272.27 623,-1308.27"/>
<text text-anchor="middle" x="596" y="-1287.47" font-family="Courier,monospace" font-size="11.00">MLA</text>
</a>
</g>
<!-- \\MLAModal_Ajax -->
<g id="node18" class="node"><title>\\MLAModal_Ajax</title>
<a xlink:href="includes.class-mla-media-modal-ajax.html" xlink:title="MLAModal_Ajax" target="_parent">
<polygon fill="none" stroke="black" points="648,-1254.27 544,-1254.27 544,-1218.27 648,-1218.27 648,-1254.27"/>
<text text-anchor="middle" x="596" y="-1233.47" font-family="Courier,monospace" font-size="11.00">MLAModal_Ajax</text>
</a>
</g>
<!-- \\MLAModal -->
<g id="node19" class="node"><title>\\MLAModal</title>
<a xlink:href="includes.class-mla-media-modal.html" xlink:title="MLAModal" target="_parent">
<polygon fill="none" stroke="black" points="631.5,-1200.27 560.5,-1200.27 560.5,-1164.27 631.5,-1164.27 631.5,-1200.27"/>
<text text-anchor="middle" x="596" y="-1179.47" font-family="Courier,monospace" font-size="11.00">MLAModal</text>
</a>
</g>
<!-- \\MLAMime -->
<g id="node20" class="node"><title>\\MLAMime</title>
<a xlink:href="includes.class-mla-mime-types.html" xlink:title="MLAMime" target="_parent">
<polygon fill="none" stroke="black" points="628,-1146.27 564,-1146.27 564,-1110.27 628,-1110.27 628,-1146.27"/>
<text text-anchor="middle" x="596" y="-1125.47" font-family="Courier,monospace" font-size="11.00">MLAMime</text>
</a>
</g>
<!-- \\MLAObjects -->
<g id="node21" class="node"><title>\\MLAObjects</title>
<a xlink:href="includes.class-mla-objects.html" xlink:title="MLAObjects" target="_parent">
<polygon fill="none" stroke="black" points="638,-1092.27 554,-1092.27 554,-1056.27 638,-1056.27 638,-1092.27"/>
<text text-anchor="middle" x="596" y="-1071.47" font-family="Courier,monospace" font-size="11.00">MLAObjects</text>
</a>
</g>
<!-- \\MLATextWidget -->
<g id="node22" class="node"><title>\\MLATextWidget</title>
<a xlink:href="includes.class-mla-objects.html" xlink:title="MLATextWidget" target="_parent">
<polygon fill="none" stroke="black" points="648,-606.27 544,-606.27 544,-570.27 648,-570.27 648,-606.27"/>
<text text-anchor="middle" x="596" y="-585.47" font-family="Courier,monospace" font-size="11.00">MLATextWidget</text>
</a>
</g>
<!-- \\WP_Widget -->
<g id="node46" class="node"><title>\\WP_Widget</title>
<ellipse fill="none" stroke="black" cx="315" cy="-50.2701" rx="58.4896" ry="18"/>
<text text-anchor="middle" x="315" y="-46.5701" font-family="Times New Roman,serif" font-size="14.00" fill="gray">\WP_Widget</text>
</g>
<!-- \\MLATextWidget&#45;&gt;\\WP_Widget -->
<g id="edge11" class="edge"><title>\\MLATextWidget&#45;&gt;\\WP_Widget</title>
<path fill="none" stroke="black" d="M543.997,-587.548C523.185,-584.55 500.622,-577.354 486,-561.27 339.706,-400.351 558.188,-240.079 414,-77.2701 405.552,-67.7315 394.075,-61.4257 381.948,-57.2878"/>
<polygon fill="none" stroke="black" points="382.71,-53.8639 372.129,-54.4137 380.743,-60.582 382.71,-53.8639"/>
</g>
<!-- \\MLAOptions -->
<g id="node23" class="node"><title>\\MLAOptions</title>
<a xlink:href="includes.class-mla-options.html" xlink:title="MLAOptions" target="_parent">
<polygon fill="none" stroke="black" points="638,-984.27 554,-984.27 554,-948.27 638,-948.27 638,-984.27"/>
<text text-anchor="middle" x="596" y="-963.47" font-family="Courier,monospace" font-size="11.00">MLAOptions</text>
</a>
</g>
<!-- \\MLA_Polylang -->
<g id="node24" class="node"><title>\\MLA_Polylang</title>
<a xlink:href="includes.class-mla-polylang-support.html" xlink:title="MLA_Polylang" target="_parent">
<polygon fill="none" stroke="black" points="645,-930.27 547,-930.27 547,-894.27 645,-894.27 645,-930.27"/>
<text text-anchor="middle" x="596" y="-909.47" font-family="Courier,monospace" font-size="11.00">MLA_Polylang</text>
</a>
</g>
<!-- \\MLASettings -->
<g id="node25" class="node"><title>\\MLASettings</title>
<a xlink:href="includes.class-mla-settings.html" xlink:title="MLASettings" target="_parent">
<polygon fill="none" stroke="black" points="641.5,-876.27 550.5,-876.27 550.5,-840.27 641.5,-840.27 641.5,-876.27"/>
<text text-anchor="middle" x="596" y="-855.47" font-family="Courier,monospace" font-size="11.00">MLASettings</text>
</a>
</g>
<!-- \\MLAShortcode_Support -->
<g id="node26" class="node"><title>\\MLAShortcode_Support</title>
<a xlink:href="includes.class-mla-shortcode-support.html" xlink:title="MLAShortcode_Support" target="_parent">
<polygon fill="none" stroke="black" points="672,-822.27 520,-822.27 520,-786.27 672,-786.27 672,-822.27"/>
<text text-anchor="middle" x="596" y="-801.47" font-family="Courier,monospace" font-size="11.00">MLAShortcode_Support</text>
</a>
</g>
<!-- \\MLAShortcodes -->
<g id="node27" class="node"><title>\\MLAShortcodes</title>
<a xlink:href="includes.class-mla-shortcodes.html" xlink:title="MLAShortcodes" target="_parent">
<polygon fill="none" stroke="black" points="648,-768.27 544,-768.27 544,-732.27 648,-732.27 648,-768.27"/>
<text text-anchor="middle" x="596" y="-747.47" font-family="Courier,monospace" font-size="11.00">MLAShortcodes</text>
</a>
</g>
<!-- \\MLATemplate_Support -->
<g id="node28" class="node"><title>\\MLATemplate_Support</title>
<a xlink:href="includes.class-mla-template-support.html" xlink:title="MLATemplate_Support" target="_parent">
<polygon fill="none" stroke="black" points="668.5,-714.27 523.5,-714.27 523.5,-678.27 668.5,-678.27 668.5,-714.27"/>
<text text-anchor="middle" x="596" y="-693.47" font-family="Courier,monospace" font-size="11.00">MLATemplate_Support</text>
</a>
</g>
<!-- \\MLA_Thumbnail -->
<g id="node29" class="node"><title>\\MLA_Thumbnail</title>
<a xlink:href="includes.class-mla-thumbnail-generation.html" xlink:title="MLA_Thumbnail" target="_parent">
<polygon fill="none" stroke="black" points="648,-660.27 544,-660.27 544,-624.27 648,-624.27 648,-660.27"/>
<text text-anchor="middle" x="596" y="-639.47" font-family="Courier,monospace" font-size="11.00">MLA_Thumbnail</text>
</a>
</g>
<!-- \\MLA_Upload_List_Table -->
<g id="node30" class="node"><title>\\MLA_Upload_List_Table</title>
<a xlink:href="includes.class-mla-upload-list-table.html" xlink:title="MLA_Upload_List_Table" target="_parent">
<polygon fill="none" stroke="black" points="675,-552.27 517,-552.27 517,-516.27 675,-516.27 675,-552.27"/>
<text text-anchor="middle" x="596" y="-531.47" font-family="Courier,monospace" font-size="11.00">MLA_Upload_List_Table</text>
</a>
</g>
<!-- \\MLA_Upload_List_Table&#45;&gt;\\WP_List_Table -->
<g id="edge13" class="edge"><title>\\MLA_Upload_List_Table&#45;&gt;\\WP_List_Table</title>
<path fill="none" stroke="black" d="M516.918,-526.968C505.23,-522.707 494.328,-516.43 486,-507.27 339.706,-346.351 564.374,-180.383 414,-23.2701 383.323,8.78162 360.254,-1.11822 316,-4.27014"/>
</g>
<!-- \\MLA_Upload_Optional_List_Table -->
<g id="node31" class="node"><title>\\MLA_Upload_Optional_List_Table</title>
<a xlink:href="includes.class-mla-upload-optional-list-table.html" xlink:title="MLA_Upload_Optional_List_Table" target="_parent">
<polygon fill="none" stroke="black" points="705.5,-498.27 486.5,-498.27 486.5,-462.27 705.5,-462.27 705.5,-498.27"/>
<text text-anchor="middle" x="596" y="-477.47" font-family="Courier,monospace" font-size="11.00">MLA_Upload_Optional_List_Table</text>
</a>
</g>
<!-- \\MLA_Upload_Optional_List_Table&#45;&gt;\\WP_List_Table -->
<g id="edge15" class="edge"><title>\\MLA_Upload_Optional_List_Table&#45;&gt;\\WP_List_Table</title>
<path fill="none" stroke="black" d="M496.052,-462.061C492.425,-459.477 489.046,-456.56 486,-453.27 354.352,-311.086 549.252,-162.03 414,-23.2701 383.032,8.50074 360.254,-1.11822 316,-4.27014"/>
</g>
<!-- \\MLA_View_List_Table -->
<g id="node32" class="node"><title>\\MLA_View_List_Table</title>
<a xlink:href="includes.class-mla-view-list-table.html" xlink:title="MLA_View_List_Table" target="_parent">
<polygon fill="none" stroke="black" points="668.5,-390.27 523.5,-390.27 523.5,-354.27 668.5,-354.27 668.5,-390.27"/>
<text text-anchor="middle" x="596" y="-369.47" font-family="Courier,monospace" font-size="11.00">MLA_View_List_Table</text>
</a>
</g>
<!-- \\MLA_View_List_Table&#45;&gt;\\WP_List_Table -->
<g id="edge17" class="edge"><title>\\MLA_View_List_Table&#45;&gt;\\WP_List_Table</title>
<path fill="none" stroke="black" d="M523.348,-366.378C509.446,-362.196 496.084,-355.587 486,-345.27 383.497,-240.399 519.16,-125.477 414,-23.2701 382.185,7.65184 360.254,-1.11822 316,-4.27014"/>
<path fill="none" stroke="black" d="M314,-4.27014C269.746,-7.42207 248.39,7.04956 216,-23.2701 138.578,-95.7439 89.4654,-437.245 76.4655,-538.137"/>
<polygon fill="none" stroke="black" points="72.9776,-537.821 75.1887,-548.183 79.9218,-538.704 72.9776,-537.821"/>
</g>
<!-- \\MLA_WPML -->
<g id="node33" class="node"><title>\\MLA_WPML</title>
<a xlink:href="includes.class-mla-wpml-support.html" xlink:title="MLA_WPML" target="_parent">
<polygon fill="none" stroke="black" points="631.5,-444.27 560.5,-444.27 560.5,-408.27 631.5,-408.27 631.5,-444.27"/>
<text text-anchor="middle" x="596" y="-423.47" font-family="Courier,monospace" font-size="11.00">MLA_WPML</text>
</a>
</g>
<!-- \\MLA_WPML_List_Table -->
<g id="node34" class="node"><title>\\MLA_WPML_List_Table</title>
<a xlink:href="includes.class-mla-wpml-support.html" xlink:title="MLA_WPML_List_Table" target="_parent">
<polygon fill="none" stroke="black" points="668.5,-2064.27 523.5,-2064.27 523.5,-2028.27 668.5,-2028.27 668.5,-2064.27"/>
<text text-anchor="middle" x="596" y="-2043.47" font-family="Courier,monospace" font-size="11.00">MLA_WPML_List_Table</text>
</a>
</g>
<!-- \\MLA_WPML_List_Table&#45;&gt;\\MLA_List_Table -->
<g id="edge19" class="edge"><title>\\MLA_WPML_List_Table&#45;&gt;\\MLA_List_Table</title>
<path fill="none" stroke="black" d="M523.384,-2040.7C509.395,-2036.51 495.989,-2029.81 486,-2019.27 363.683,-1890.15 324.814,-1294.73 317.408,-1157.53"/>
<polygon fill="none" stroke="black" points="320.896,-1157.21 316.874,-1147.41 313.906,-1157.58 320.896,-1157.21"/>
</g>
<!-- \\MLA_WPML_Table -->
<g id="node35" class="node"><title>\\MLA_WPML_Table</title>
<a xlink:href="includes.class-mla-wpml-support.html" xlink:title="MLA_WPML_Table" target="_parent">
<polygon fill="none" stroke="black" points="651.5,-336.27 540.5,-336.27 540.5,-300.27 651.5,-300.27 651.5,-336.27"/>
<text text-anchor="middle" x="596" y="-315.47" font-family="Courier,monospace" font-size="11.00">MLA_WPML_Table</text>
</a>
</g>
<!-- \\MLAUninstall -->
<g id="node36" class="node"><title>\\MLAUninstall</title>
<a xlink:href="mla-uninstall.html" xlink:title="MLAUninstall" target="_parent">
<polygon fill="none" stroke="black" points="645,-282.27 547,-282.27 547,-246.27 645,-246.27 645,-282.27"/>
<text text-anchor="middle" x="596" y="-261.47" font-family="Courier,monospace" font-size="11.00">MLAUninstall</text>
</a>
</g>
<!-- \\MLATest -->
<g id="node37" class="node"><title>\\MLATest</title>
<a xlink:href="tests.class-mla-tests.html" xlink:title="MLATest" target="_parent">
<polygon fill="none" stroke="black" points="628,-228.27 564,-228.27 564,-192.27 628,-192.27 628,-228.27"/>
<text text-anchor="middle" x="596" y="-207.47" font-family="Courier,monospace" font-size="11.00">MLATest</text>
</a>
</g>
</g>
</svg>
